<svg xmlns="http://www.w3.org/2000/svg" width="960" height="600" viewBox="0 0 960 600">
  <defs>
    <linearGradient id="sky" x1="0" y1="0" x2="0" y2="1">
      <stop offset="0" stop-color="#89b9d4"/>
      <stop offset="1" stop-color="#dfe4d7"/>
    </linearGradient>
    <linearGradient id="water" x1="0" y1="0" x2="1" y2="1">
      <stop offset="0" stop-color="#5a8792"/>
      <stop offset="1" stop-color="#274f61"/>
    </linearGradient>
    <linearGradient id="ground" x1="0" y1="0" x2="0" y2="1">
      <stop offset="0" stop-color="#718052"/>
      <stop offset="1" stop-color="#354a37"/>
    </linearGradient>
  </defs>

  <rect width="960" height="600" fill="url(#sky)"/>
  <circle cx="790" cy="92" r="50" fill="#f1d99e" opacity="0.9"/>

  <path d="M0 275 L130 152 L222 225 L345 118 L492 254 L610 155 L765 274 L865 190 L960 262 L960 355 L0 355 Z" fill="#61726f"/>
  <path d="M0 304 L155 205 L280 292 L410 188 L548 304 L700 210 L820 300 L960 226 L960 390 L0 390 Z" fill="#405a52"/>
  <path d="M0 344 L175 268 L330 336 L498 250 L652 340 L785 282 L960 348 L960 430 L0 430 Z" fill="#30493d"/>

  <rect y="340" width="960" height="260" fill="url(#ground)"/>
  <path d="M420 360 C560 315 760 332 960 398 L960 600 L390 600 C430 525 456 448 420 360 Z" fill="url(#water)"/>
  <path d="M451 421 C580 388 730 397 906 444" fill="none" stroke="#8fb1ae" stroke-width="9" opacity="0.42"/>
  <path d="M470 493 C630 452 755 474 929 529" fill="none" stroke="#b4cbc1" stroke-width="5" opacity="0.28"/>

  <g fill="#c54b36">
    <rect x="145" y="196" width="22" height="196"/>
    <rect x="301" y="196" width="22" height="196"/>
    <rect x="118" y="187" width="232" height="24" rx="4"/>
    <rect x="139" y="224" width="188" height="18" rx="3"/>
    <rect x="169" y="240" width="12" height="142"/>
    <rect x="286" y="240" width="12" height="142"/>
  </g>
  <rect x="107" y="178" width="254" height="10" rx="5" fill="#803729"/>
  <path d="M212 205 L235 205 L230 391 L217 391 Z" fill="#7e3428" opacity="0.75"/>

  <g>
    <path d="M515 448 C610 385 716 390 817 451" fill="none" stroke="#6b3d2c" stroke-width="28" stroke-linecap="round"/>
    <path d="M512 438 C607 375 720 380 823 442" fill="none" stroke="#d29a63" stroke-width="17" stroke-linecap="round"/>
    <path d="M534 431 C618 390 710 390 800 436" fill="none" stroke="#ead2a7" stroke-width="5" stroke-linecap="round" opacity="0.7"/>
  </g>

  <g fill="#d4943d">
    <circle cx="82" cy="334" r="36"/>
    <circle cx="116" cy="319" r="31"/>
    <circle cx="147" cy="342" r="38"/>
    <circle cx="106" cy="365" r="40"/>
  </g>
  <g fill="#a93f30">
    <circle cx="760" cy="315" r="36"/>
    <circle cx="799" cy="297" r="43"/>
    <circle cx="839" cy="323" r="39"/>
    <circle cx="786" cy="343" r="43"/>
  </g>
  <g fill="#e4b84d">
    <circle cx="865" cy="248" r="27"/>
    <circle cx="897" cy="232" r="33"/>
    <circle cx="925" cy="257" r="30"/>
    <circle cx="890" cy="275" r="34"/>
  </g>

  <g stroke="#5e3b2c" stroke-width="9" stroke-linecap="round">
    <path d="M110 382 L105 493"/>
    <path d="M802 350 L785 461"/>
    <path d="M897 282 L885 372"/>
  </g>

  <g fill="#d8dfc5" opacity="0.8">
    <ellipse cx="582" cy="536" rx="26" ry="11"/>
    <ellipse cx="643" cy="506" rx="21" ry="9"/>
    <ellipse cx="721" cy="555" rx="25" ry="10"/>
    <ellipse cx="834" cy="494" rx="18" ry="8"/>
  </g>

  <g fill="#b23d33" opacity="0.78">
    <circle cx="706" cy="355" r="7"/>
    <circle cx="739" cy="371" r="5"/>
    <circle cx="850" cy="374" r="6"/>
    <circle cx="160" cy="418" r="6"/>
    <circle cx="196" cy="399" r="5"/>
  </g>

  <path d="M0 550 C160 500 290 515 430 570 L430 600 L0 600 Z" fill="#263e30"/>
  <path d="M22 590 C160 537 287 547 411 600" fill="none" stroke="#83905b" stroke-width="12" opacity="0.5"/>
</svg>
